<svg id="Layer_1" data-name="Layer 1" xmlns="http://www.w3.org/2000/svg" viewBox="0 0 1080 1080"><defs><style>.cls-1{fill:#f93c2f;}.cls-2{fill:#002e60;}</style></defs><circle class="cls-1" cx="281.9" cy="610.75" r="70.75"/><circle class="cls-2" cx="281.9" cy="469.25" r="70.75"/><path class="cls-2" d="M211.15,469.25a70.75,70.75,0,0,0-141.5,0v141.5a70.75,70.75,0,0,0,141.5,0Z"/><path class="cls-1" d="M462.66,657A51.2,51.2,0,0,1,436.29,650a53.14,53.14,0,0,1-19.22-19.15,52.18,52.18,0,0,1,0-52.73,53.91,53.91,0,0,1,19.22-19.23,50.88,50.88,0,0,1,26.37-7.14,48.47,48.47,0,0,1,28.06,8.54,54.47,54.47,0,0,1,18.93,22.69l-21.06,6A32.41,32.41,0,0,0,478,577.19a27,27,0,0,0-15.32-4.42A29.74,29.74,0,0,0,436,588.46a32.85,32.85,0,0,0-4,16,32.41,32.41,0,0,0,4,15.91A29.85,29.85,0,0,0,462.66,636a28,28,0,0,0,15.17-4.05,28.74,28.74,0,0,0,10.31-11.42l21.36,5.75a52.58,52.58,0,0,1-18.78,22.39A49,49,0,0,1,462.66,657Z"/><path class="cls-1" d="M556.64,657a38.33,38.33,0,0,1-20.1-5.52,41.5,41.5,0,0,1-14.66-14.8,39.7,39.7,0,0,1,0-40.15,41.08,41.08,0,0,1,14.66-14.65,39.81,39.81,0,0,1,40.21,0,40.91,40.91,0,0,1,14.66,14.73,39.81,39.81,0,0,1,0,40.21,40.91,40.91,0,0,1-14.66,14.73A38.71,38.71,0,0,1,556.64,657Zm0-19.44a19.11,19.11,0,0,0,10.24-2.87,21.31,21.31,0,0,0,7.37-7.66,21,21,0,0,0-7.37-28.36,19.5,19.5,0,0,0-10.24-2.8,19.08,19.08,0,0,0-10.23,2.87,21.43,21.43,0,0,0-7.37,7.59,20.2,20.2,0,0,0-2.72,10.31A20.62,20.62,0,0,0,539,627.06a21.23,21.23,0,0,0,7.37,7.66A19.08,19.08,0,0,0,556.64,637.59Z"/><path class="cls-1" d="M606.58,577.78h21.36V585a28.84,28.84,0,0,1,9.5-6.26,31.93,31.93,0,0,1,12.3-2.28,35,35,0,0,1,16,3.75,29.61,29.61,0,0,1,16.43,27.18v48.47H660.79v-43a17.69,17.69,0,0,0-2.06-8.62,14.85,14.85,0,0,0-5.6-5.81,15.18,15.18,0,0,0-7.81-2.07,16.39,16.39,0,0,0-9.13,2.58,17.06,17.06,0,0,0-6.11,6.92,21.53,21.53,0,0,0-2.14,9.65v40.37H606.58Z"/><path class="cls-1" d="M695.26,577.78h21.36V585a28.84,28.84,0,0,1,9.5-6.26,31.93,31.93,0,0,1,12.3-2.28,35,35,0,0,1,16,3.75,29.65,29.65,0,0,1,16.43,27.18v48.47H749.47v-43a17.59,17.59,0,0,0-2.07-8.62,14.82,14.82,0,0,0-5.59-5.81,15.18,15.18,0,0,0-7.81-2.07,16.39,16.39,0,0,0-9.13,2.58,17.09,17.09,0,0,0-6.12,6.92,21.66,21.66,0,0,0-2.13,9.65v40.37H695.26Z"/><path class="cls-1" d="M821.21,657a40.3,40.3,0,0,1-34.77-60.54,40.14,40.14,0,0,1,14.73-14.66A39.9,39.9,0,0,1,839,580.65a40.84,40.84,0,0,1,14,11.49,39.78,39.78,0,0,1,7.59,16.43,36.21,36.21,0,0,1,.14,16.2H802.06a17,17,0,0,0,10.68,11.94,23.81,23.81,0,0,0,8.47,1.47,30.46,30.46,0,0,0,9.94-1.7,23.67,23.67,0,0,0,8.47-4.93l18.56,5.3Q853.62,646,843,651.51A46.69,46.69,0,0,1,821.21,657Zm18.7-48.46a19.68,19.68,0,0,0-3.75-6.56,19.41,19.41,0,0,0-6.41-4.86,19.94,19.94,0,0,0-8.69-1.84,20.42,20.42,0,0,0-8.77,1.84,19.19,19.19,0,0,0-6.48,4.86,19.5,19.5,0,0,0-3.75,6.56Z"/><path class="cls-1" d="M909.74,657A40.3,40.3,0,0,1,875,596.49a40.21,40.21,0,0,1,14.73-14.66,39.35,39.35,0,0,1,20-5.37,38.14,38.14,0,0,1,22.54,7.07,39.63,39.63,0,0,1,14.43,18.56l-19.44,5.6a20.57,20.57,0,0,0-7-8.77,17.67,17.67,0,0,0-10.53-3.31,18.72,18.72,0,0,0-10.24,2.94,21.75,21.75,0,0,0-7.37,7.81A21.44,21.44,0,0,0,899.5,635a19,19,0,0,0,10.24,2.87,17.56,17.56,0,0,0,10.6-3.31,20.9,20.9,0,0,0,6.93-8.62l19.44,5.6A39.85,39.85,0,0,1,932.35,650,38,38,0,0,1,909.74,657Z"/><path class="cls-1" d="M1010.35,655.12q-12.23,3.54-22.47,1.77t-16.27-8.69q-6-6.93-6-18.42l.15-33.58H952.46V577.78h13.26l.14-17.23h21.07l-.15,17.23h22.54V596.2H986.78l-.15,33.43a6.64,6.64,0,0,0,2.73,5.31c1.81,1.47,4.51,2.26,8.1,2.35s7.88-.83,12.89-2.79Z"/><path class="cls-2" d="M417.67,426.2h47.88a37.69,37.69,0,0,1,17.09,3.69,27.28,27.28,0,0,1,11.27,9.94,25.83,25.83,0,0,1,3.9,13.92,27.24,27.24,0,0,1-3.31,13.19,26.81,26.81,0,0,1-8.92,9.79,26.79,26.79,0,0,1,12.52,10.39,27.18,27.18,0,0,1,4.13,14.51,25.67,25.67,0,0,1-4,14.06,27.71,27.71,0,0,1-11.41,9.95,39.35,39.35,0,0,1-17.61,3.68H417.67Zm47.14,42.87a11.52,11.52,0,0,0,8.62-3.39,11.57,11.57,0,0,0,0-16.2,11.52,11.52,0,0,0-8.62-3.39H439v23Zm2.95,40.36a11.82,11.82,0,0,0,8.62-3.24,10.68,10.68,0,0,0,3.31-7.95,10.94,10.94,0,0,0-3.31-8,11.67,11.67,0,0,0-8.62-3.31H439v22.53Z"/><path class="cls-2" d="M512.25,426.2h74.68v20.48H534.34v21.07H581v20h-46.7v21.06h52.59v20.48H512.25Z"/><path class="cls-2" d="M629.06,497.65,594,426.2h23.57L640,472.61l22.4-46.41h23.56l-34.61,70.86v32.26H629.06Z"/><path class="cls-2" d="M736.16,530.5a51.29,51.29,0,0,1-26.37-7.07,53.22,53.22,0,0,1-19.22-19.15,52.2,52.2,0,0,1,0-52.74,53.72,53.72,0,0,1,19.22-19.22,52.2,52.2,0,0,1,52.74,0,53.88,53.88,0,0,1,19.22,19.22,52.49,52.49,0,0,1,.07,52.74,52.53,52.53,0,0,1-19.22,19.15A51.7,51.7,0,0,1,736.16,530.5Zm0-20.62a29.47,29.47,0,0,0,15.68-4.28,30,30,0,0,0,11-11.63,34.39,34.39,0,0,0,0-32.12,30.69,30.69,0,0,0-11-11.71,30.39,30.39,0,0,0-31.3,0,30.64,30.64,0,0,0-11,11.71,34.47,34.47,0,0,0,0,32.12,30.12,30.12,0,0,0,11,11.63A29.48,29.48,0,0,0,736.16,509.88Z"/><path class="cls-2" d="M799.35,426.2h35.36l34.76,81.91-.15-81.91H891V529.32H856.65L821,444.77v84.55H799.35Z"/></svg>